<svg xmlns="http://www.w3.org/2000/svg" width="200" height="600" viewBox="0 0 200 600">
  <defs>
    <linearGradient id="hook" x1="0" x2="1" y1="0" y2="0">
      <stop offset="0" stop-color="#a8281e"/>
      <stop offset="0.5" stop-color="#ff5548"/>
      <stop offset="1" stop-color="#c03028"/>
    </linearGradient>
    <linearGradient id="shaft" x1="0" x2="1" y1="0" y2="0">
      <stop offset="0" stop-color="#a97c50"/>
      <stop offset="0.5" stop-color="#e6c896"/>
      <stop offset="1" stop-color="#8b6b3f"/>
    </linearGradient>
    <radialGradient id="cluster" cx="0.5" cy="0.95" r="0.85">
      <stop offset="0" stop-color="#7a4520"/>
      <stop offset="0.55" stop-color="#b77c3e"/>
      <stop offset="1" stop-color="#e6b578"/>
    </radialGradient>
  </defs>

  <path d="M 100 185 L 100 100 A 28 28 0 0 0 44 100 L 44 128"
        fill="none" stroke="url(#hook)" stroke-width="20" stroke-linecap="round"/>
  <rect x="92" y="180" width="16" height="175" fill="url(#shaft)" stroke="#8b6b3f" stroke-width="0.5" rx="4"/>
  <rect x="80" y="348" width="40" height="18" fill="#0f0a04" rx="2"/>
  <line x1="80" y1="352" x2="120" y2="352" stroke="#000" stroke-width="0.6"/>
  <line x1="80" y1="358" x2="120" y2="358" stroke="#000" stroke-width="0.6"/>
  <line x1="80" y1="364" x2="120" y2="364" stroke="#000" stroke-width="0.6"/>

  <g transform="translate(100 366)">
    <path d="M 0 0 C -30 30 -58 100 -62 180 C -64 215 -40 232 -18 235 L 18 235 C 40 232 64 215 62 180 C 58 100 30 30 0 0 Z"
          fill="url(#cluster)" opacity="0.95"/>
    <path d="M 0 18 C -22 45 -46 110 -48 175 C -49 205 -28 220 -12 222 L 12 222 C 28 220 49 205 48 175 C 46 110 22 45 0 18 Z"
          fill="#b77c3e" opacity="0.8"/>
    <g stroke-linecap="round" fill="none" stroke="#4a2e14" stroke-width="1.3" opacity="0.75">
      <path d="M -2 232 Q -12 150 -6 30"/><path d="M 2 232 Q 12 150 6 30"/>
      <path d="M -10 230 Q -30 160 -25 50"/><path d="M 10 230 Q 30 160 25 50"/>
      <path d="M -20 228 Q -48 170 -45 80"/><path d="M 20 228 Q 48 170 45 80"/>
      <path d="M -30 225 Q -62 180 -60 120"/><path d="M 30 225 Q 62 180 60 120"/>
      <path d="M -40 220 Q -72 195 -74 155"/><path d="M 40 220 Q 72 195 74 155"/>
    </g>
    <g stroke-linecap="round" fill="none" stroke="#f2d4a4" stroke-width="0.9" opacity="0.85">
      <path d="M -4 220 Q -8 120 0 22"/><path d="M 4 220 Q 8 120 0 22"/>
      <path d="M -14 215 Q -20 140 -14 60"/><path d="M 14 215 Q 20 140 14 60"/>
      <path d="M -28 210 Q -36 160 -35 100"/><path d="M 28 210 Q 36 160 35 100"/>
    </g>
    <g stroke-linecap="round" fill="none" stroke="#3a2410" stroke-width="0.7" opacity="0.6">
      <line x1="-56" y1="188" x2="-72" y2="192"/><line x1="56" y1="188" x2="72" y2="192"/>
      <line x1="-62" y1="155" x2="-80" y2="158"/><line x1="62" y1="155" x2="80" y2="158"/>
      <line x1="-54" y1="125" x2="-72" y2="122"/><line x1="54" y1="125" x2="72" y2="122"/>
      <line x1="-44" y1="95"  x2="-58" y2="88"/> <line x1="44" y1="95"  x2="58" y2="88"/>
      <line x1="-30" y1="65"  x2="-40" y2="55"/> <line x1="30" y1="65"  x2="40" y2="55"/>
      <line x1="0" y1="-5" x2="0" y2="-18"/>
    </g>
  </g>
</svg>
